HIERARCHY
ROOT Hips
{
	OFFSET 0.00000 0.00000 0.00000
	CHANNELS 6 Xposition Yposition Zposition Yrotation Zrotation Xrotation 
	JOINT Lumbar
	{
		OFFSET 0 0 0
		CHANNELS 3 Zrotation Xrotation Yrotation
		JOINT Neck
		{
			OFFSET 0.00 0.2701 0.00
			CHANNELS 3 Zrotation Xrotation Yrotation
			End Site
			{
				OFFSET 0.00 0.1379 0.00
			}
		}
		JOINT RightShoulder
		{
			OFFSET 0.0119 0.2289 0.1181
			CHANNELS 3 Zrotation Xrotation Yrotation
			JOINT RightElbow
			{
				OFFSET 0.00 -0.1475 0.00
				CHANNELS 2 Zrotation Yrotation
				JOINT RightWrist
				{
					OFFSET 0.00 -0.1605 0.00
					CHANNELS 2 Zrotation Xrotation
					End Site
					{
						OFFSET 0.0040 -0.1068 0.0006
					}
				}
			}
		}
		JOINT LeftShoulder
		{
			OFFSET 0.0119 0.2289 -0.1181
			CHANNELS 3 Zrotation Xrotation Yrotation
			JOINT LeftElbow
			{
				OFFSET 0.00 -0.1475 0.00
				CHANNELS 2 Zrotation Yrotation
				JOINT LeftWrist
				{
					OFFSET 0.00 -0.1605 0.00
					CHANNELS 2 Zrotation Xrotation
					End Site
					{
						OFFSET 0.0040 -0.1068 -0.0006
					}
				}
			}
		}
	}
	JOINT RightHip
	{
		OFFSET 0.0316 -0.0424 0.0458
		CHANNELS 3 Zrotation Xrotation Yrotation
		JOINT RightKnee
		{
			OFFSET 0.00 -0.2438 0.00
			CHANNELS 1 Zrotation
			JOINT RightAnkle
			{
				OFFSET 0.00 -0.2449 0.00
				CHANNELS 3 Zrotation Xrotation Yrotation
				End Site
				{
					OFFSET 0.1237 -0.0542 0.0051
				}
			}
		}
	}
	JOINT LeftHip
	{
		OFFSET 0.0316 -0.0424 -0.0458
		CHANNELS 3 Zrotation Xrotation Yrotation
		JOINT LeftKnee
		{
			OFFSET 0.00 -0.2438 0.00
			CHANNELS 1 Zrotation
			JOINT LeftAnkle
			{
				OFFSET 0.00 -0.2449 0.00
				CHANNELS 3 Zrotation Xrotation Yrotation
				End Site
				{
					OFFSET 0.1237 -0.0542 -0.0051
				}
			}
		}
	}
}
MOTION
Frames: 13
Frame Time: 0.02
-0.03772 -0.00384 -0.32281 -122.8465 -32.03731 -2.46713 47.23174 -2.24044 0.3452 -7.88931 12.48091 -2.11994 33.51648 -21.67096 -7.66772 124.59177 54.10357 -48.37552 -0.11396 17.50038 19.64648 4.89579 111.92103 -74.02739 -34.00391 2.08892 48.54445 -2.99245 -3.29654 -63.95321 -7.43354 -2.86412 -3.66907 44.86946 5.1853 12.51474 -29.27006 -6.92619 0.80241 2.65049
-0.04193 -0.00344 -0.31798 -122.18248 -32.16867 -2.8178 46.88506 -2.08787 -0.32781 -8.17402 12.98007 -2.11994 33.52021 -22.03226 -7.97112 125.23246 54.82748 -47.76734 -0.20414 16.57943 19.43709 6.71684 113.27861 -73.31724 -33.46001 1.96427 50.24237 -3.20555 -2.97844 -61.39346 -7.48947 -2.85582 -3.66794 44.31112 5.46277 11.62822 -29.20718 -6.87368 0.78942 2.6466
-0.04624 -0.00317 -0.31327 -121.50065 -32.41368 -3.1324 46.58472 -1.93593 -1.0152 -8.32672 13.48336 -2.11994 33.581 -22.4358 -8.38193 125.89065 56.10885 -47.09576 -0.37136 15.42621 19.57105 8.9396 114.77108 -73.02265 -32.43625 1.88797 51.81242 -3.49803 -2.58199 -57.8448 -7.58821 -2.80106 -3.64625 43.9196 5.70801 10.52084 -29.18428 -6.8138 0.79608 2.65212
-0.05053 -0.00286 -0.30849 -120.83159 -32.61102 -3.45721 46.27302 -1.78432 -1.68708 -8.535 13.97434 -2.11994 33.58757 -22.76504 -8.71109 126.52724 57.13775 -46.4781 -0.50269 14.37972 19.48795 10.96697 116.1811 -72.55407 -31.71475 1.79452 53.41443 -3.75597 -2.21799 -54.70277 -7.67043 -2.75594 -3.62847 43.45154 5.97265 9.53393 -29.14124 -6.75807 0.79312 2.65284
-0.05467 -0.00247 -0.30379 -120.14482 -32.79822 -3.81137 45.92166 -1.62714 -2.40012 -8.76378 14.51182 -2.11994 33.71572 -23.33136 -9.17783 127.23129 58.17762 -45.7424 -0.63905 13.31886 19.66908 13.07084 117.69391 -72.01605 -30.65198 1.67981 55.13658 -4.01016 -1.87002 -51.69317 -7.73936 -2.75816 -3.63306 42.99735 6.21805 8.4509 -29.10834 -6.69994 0.79385 2.65626
-0.05918 -0.00228 -0.29894 -119.48889 -33.02936 -4.09479 45.66329 -1.48325 -3.02948 -8.91769 14.95253 -2.11994 33.60031 -23.41685 -9.38453 127.78927 59.30824 -45.23369 -0.78062 12.23663 19.38055 15.08858 119.01335 -71.71031 -30.17795 1.61938 56.57303 -4.28739 -1.47062 -48.20872 -7.8458 -2.65261 -3.58706 42.54811 6.49656 7.51857 -29.06308 -6.64482 0.79129 2.65614
-0.06459 -0.00259 -0.29365 -118.93533 -33.37464 -4.18954 45.65247 -1.3709 -3.4261 -8.89832 15.1243 -2.11994 32.83808 -22.10911 -8.84002 128.01596 60.73019 -45.46356 -0.94409 11.15069 17.69396 16.94061 119.84509 -72.11214 -31.47649 1.71895 57.26789 -4.6405 -0.9305 -43.44035 -8.05349 -2.24286 -3.39801 42.09378 6.86231 7.07237 -28.9753 -6.59796 0.77479 2.64357
-0.07039 -0.00309 -0.2882 -118.4109 -33.7562 -4.21462 45.73341 -1.27307 -3.73759 -8.80776 15.19836 -2.11994 31.82304 -20.32679 -8.03201 128.08268 62.20124 -45.9035 -1.10556 10.05382 15.52763 18.66113 120.4646 -72.70498 -33.37398 1.86733 57.67521 -5.00811 -0.3453 -38.27212 -8.29601 -1.72961 -3.16031 41.63451 7.26462 6.78339 -28.87382 -6.55456 0.75431 2.62717
-0.07608 -0.00352 -0.28279 -117.86458 -34.10628 -4.27206 45.77041 -1.17238 -4.08589 -8.74875 15.31726 -2.11994 30.89604 -18.79415 -7.34846 128.16918 63.52099 -46.19445 -1.2506 8.963 13.5875 20.32683 121.12488 -73.10383 -34.98026 1.98 58.20281 -5.34842 0.20977 -33.43208 -8.51769 -1.27536 -2.9503 41.16019 7.6576 6.41498 -28.77663 -6.51065 0.73546 2.61263
-0.08149 -0.0039 -0.2775 -117.35419 -34.52154 -4.32386 45.8172 -1.05639 -4.44111 -8.68836 15.43441 -2.11994 30.07829 -17.11193 -6.64639 128.47019 65.36362 -46.73206 -1.47082 7.85532 11.61362 22.48294 122.01377 -73.97036 -36.66281 2.15335 58.77105 -5.77918 0.81342 -27.93959 -8.76268 -0.76869 -2.71592 40.75983 8.01808 6.07613 -28.6864 -6.46207 0.71762 2.59772
-0.08757 -0.00441 -0.27193 -116.77609 -34.81087 -4.37317 45.8664 -0.97511 -4.76346 -8.61587 15.53204 -2.11994 28.97986 -15.63758 -5.92192 128.29819 66.17314 -46.77751 -1.53383 6.78828 9.60586 23.59051 122.38848 -73.90147 -38.31921 2.20887 59.18667 -6.02363 1.31904 -23.72285 -8.96599 -0.34761 -2.52115 40.20838 8.45619 5.71121 -28.58121 -6.42404 0.697 2.58279
-0.0954 -0.00524 -0.26558 -116.00354 -34.71851 -4.41609 45.88458 -0.99146 -4.99774 -8.52614 15.59846 -2.11994 27.10494 -14.76955 -5.17594 126.75538 63.64468 -45.68413 -1.15475 5.79745 7.49941 21.75249 121.27099 -71.22374 -39.89572 1.95011 59.26079 -5.75233 1.60043 -23.14264 -9.05282 -0.18519 -2.44648 39.1865 9.09173 5.27926 -28.41246 -6.41542 0.66504 2.56672
-0.10388 -0.00617 -0.25896 -115.16166 -34.50158 -4.46172 45.90388 -1.04126 -5.20449 -8.42769 15.64874 -2.11994 24.96971 -14.14174 -4.42194 124.76109 60.14085 -44.0525 -0.61831 4.85846 5.39768 18.87813 119.66486 -67.60012 -41.40321 1.56825 59.18878 -5.29218 1.77169 -23.86098 -9.09501 -0.11334 -2.41371 38.02289 9.80512 4.80953 -28.23585 -6.41733 0.63111 2.55107
